<svg xmlns="http://www.w3.org/2000/svg" width="42" height="42" viewBox="0 0 42 42">
  <g fill="none" transform="translate(0 2.333)">
    <path fill="#FCD3D1" d="M30.7820833,3.5 C27.4971667,3.5 23.9309167,5.13324053 22.1666667,8.4 C20.4025,5.13324053 16.8361667,3.5 13.55125,3.5 C7.80391667,3.5 3.5,7.51261742 3.5,14.244642 C3.5,17.1482633 4.54683333,20.9194072 6.91025,24.0499318 C9.2735,27.180642 10.6793333,28.8478485 15.2563333,32.2165985 C19.8333333,35.5855341 22.1666667,36.1666667 22.1666667,36.1666667 C22.1666667,36.1666667 24.5,35.5855341 29.077,32.2165985 C33.6539167,28.8478485 35.0598333,27.180642 37.4230833,24.0499318 C39.7865,20.9194072 40.8333333,17.1482633 40.8333333,14.244642 C40.8333333,7.51261742 36.5294167,3.5 30.7820833,3.5 Z"/>
    <path stroke="#FC4B54" stroke-width="2" d="M21,36.2841086 C21.0416179,36.2692947 21.0881421,36.2523206 21.1395684,36.2330407 C21.5151611,36.0922303 21.9722135,35.8928229 22.510377,35.6248303 C24.080049,34.8431713 25.9694712,33.6674785 28.1752976,32.0180916 C32.7285612,28.6135551 34.3142846,26.9891371 37.3608422,22.8891545 C39.6997092,19.7419731 41,15.7183724 41,12.2795909 C41,5.36400789 36.8212285,1 30.6923437,1 C27.0585678,1 23.5665515,2.90255679 21.8829793,6.06941188 L20.9999791,7.73036452 L20.1170115,6.06939459 C18.4335375,2.90257466 14.9414645,1 11.3076563,1 C5.17877154,1 1,5.36400789 1,12.2795909 C1,15.7183724 2.30029082,19.7419731 4.63919485,22.8892044 C7.68585503,26.9893251 9.27145047,28.6136258 13.8247165,32.0181022 C16.0305288,33.6674785 17.919951,34.8431713 19.489623,35.6248303 C20.0277865,35.8928229 20.4848389,36.0922303 20.8604316,36.2330407 C20.9118579,36.2523206 20.9583821,36.2692947 21,36.2841086 Z"/>
  </g>
</svg>
