<svg xmlns="http://www.w3.org/2000/svg" width="42" height="42" viewBox="0 0 42 42">
  <g fill="none" fill-rule="evenodd">
    <rect width="37.333" height="37.333" x="4.667" y="4.667" fill="#C9EAD9" opacity=".35" rx="4"/>
    <rect width="40" height="40" x="1" y="1" stroke="#1BBC6C" stroke-width="2" rx="4"/>
    <rect width="28" height="2.333" x="7" y="32.667" fill="#1BBC6C" rx="1.167"/>
    <path fill="#1BBC6C" d="M21.9583158,29.8322366 C21.7475743,30.1351022 21.3969368,30.3333333 21,30.3333333 C20.5752714,30.3333333 20.2035524,30.1063719 19.9995081,29.7671139 C19.9193813,29.7189803 19.8437891,29.6603716 19.7747054,29.5912879 L14.8249579,24.6415404 L14.8249579,24.6415404 C14.3693462,24.1859287 14.3693462,23.4472363 14.8249579,22.9916246 L14.8249579,22.9916246 L14.8249579,22.9916246 C15.2805696,22.5360129 16.0192621,22.5360129 16.4748737,22.9916246 L19.8333333,26.3500842 L19.8333333,8.16666667 L19.8333333,8.16666667 C19.8333333,7.52233446 20.3556678,7 21,7 C21.6443322,7 22.1666667,7.52233446 22.1666667,8.16666667 L22.1666667,26.4329966 L25.6080387,22.9916246 C26.0636504,22.5360129 26.8023429,22.5360129 27.2579545,22.9916246 C27.7135662,23.4472363 27.7135662,24.1859287 27.2579545,24.6415404 L22.3082071,29.5912879 C22.2041044,29.6953905 22.0852228,29.7757068 21.9583158,29.8322366 Z"/>
  </g>
</svg>
